<?xml version="1.0" encoding="UTF-8" standalone="no"?><svg xmlns="http://www.w3.org/2000/svg" xmlns:xlink="http://www.w3.org/1999/xlink" contentScriptType="application/ecmascript" contentStyleType="text/css" height="316px" preserveAspectRatio="none" style="width:683px;height:316px;background:#FFFFFF;" version="1.1" viewBox="0 0 683 316" width="683px" zoomAndPan="magnify"><defs><filter height="300%" id="f1tusb0bg2xyxs" width="300%" x="-1" y="-1"><feGaussianBlur result="blurOut" stdDeviation="2.0"/><feColorMatrix in="blurOut" result="blurOut2" type="matrix" values="0 0 0 0 0 0 0 0 0 0 0 0 0 0 0 0 0 0 .4 0"/><feOffset dx="4.0" dy="4.0" in="blurOut2" result="blurOut3"/><feBlend in="SourceGraphic" in2="blurOut3" mode="normal"/></filter></defs><g><!--MD5=[afcb8546e38fd0254ebcf2f9ef9d8004]
cluster Authorization--><polygon fill="#FFFFFF" filter="url(#f1tusb0bg2xyxs)" points="207,6.602,309,6.602,316,31.6699,666,31.6699,666,309.602,207,309.602,207,6.602" style="stroke:#000000;stroke-width:1.5;"/><line style="stroke:#000000;stroke-width:1.5;" x1="207" x2="316" y1="31.6699" y2="31.6699"/><text fill="#000000" font-family="sans-serif" font-size="14" font-weight="bold" lengthAdjust="spacing" textLength="96" x="211" y="23.5679">Authorization</text><ellipse cx="304.9075" cy="61.6087" fill="#FEFECE" filter="url(#f1tusb0bg2xyxs)" rx="66.9075" ry="17.0067" style="stroke:#A80036;stroke-width:1.5;"/><text fill="#000000" font-family="sans-serif" font-size="14" lengthAdjust="spacing" textLength="75" x="264.4075" y="66.3416">Đăng nhập</text><ellipse cx="304.7578" cy="130.4513" fill="#FEFECE" filter="url(#f1tusb0bg2xyxs)" rx="48.7578" ry="16.8493" style="stroke:#A80036;stroke-width:1.5;"/><text fill="#000000" font-family="sans-serif" font-size="14" lengthAdjust="spacing" textLength="51" x="276.2578" y="135.1843">Đăng kí</text><ellipse cx="305.001" cy="201.4022" fill="#FEFECE" filter="url(#f1tusb0bg2xyxs)" rx="82.001" ry="18.8002" style="stroke:#A80036;stroke-width:1.5;"/><text fill="#000000" font-family="sans-serif" font-size="14" lengthAdjust="spacing" textLength="109" x="247.501" y="206.1351">Lấy lại mật khẩu</text><ellipse cx="305.2004" cy="274.5421" fill="#FEFECE" filter="url(#f1tusb0bg2xyxs)" rx="80.2004" ry="18.4401" style="stroke:#A80036;stroke-width:1.5;"/><text fill="#000000" font-family="sans-serif" font-size="14" lengthAdjust="spacing" textLength="104" x="250.2004" y="279.275">Quên mật khẩu</text><ellipse cx="570.3678" cy="258.5682" fill="#FEFECE" filter="url(#f1tusb0bg2xyxs)" rx="79.3678" ry="29.9662" style="stroke:#A80036;stroke-width:1.5;"/><text fill="#000000" font-family="sans-serif" font-size="14" lengthAdjust="spacing" textLength="87" x="524.7299" y="252.5149">Nhận lại mật</text><text fill="#000000" font-family="sans-serif" font-size="14" lengthAdjust="spacing" textLength="96" x="522.2299" y="271.5828">khẩu qua mail</text><!--MD5=[0bc547216396b1ae8e8279bf1212b736]
entity student--><ellipse cx="37" cy="82.102" fill="#FEFECE" filter="url(#f1tusb0bg2xyxs)" rx="8" ry="8" style="stroke:#A80036;stroke-width:1.5;"/><path d="M37,90.102 L37,117.102 M24,98.102 L50,98.102 M37,117.102 L24,132.102 M37,117.102 L50,132.102 " fill="none" filter="url(#f1tusb0bg2xyxs)" style="stroke:#A80036;stroke-width:1.5;"/><text fill="#000000" font-family="sans-serif" font-size="14" lengthAdjust="spacing" textLength="62" x="6" y="152.5679">Sinh viên</text><!--MD5=[3a97ee507a2567319ae9a2f540b0a5e1]
entity teacher--><ellipse cx="37" cy="201.102" fill="#FEFECE" filter="url(#f1tusb0bg2xyxs)" rx="8" ry="8" style="stroke:#A80036;stroke-width:1.5;"/><path d="M37,209.102 L37,236.102 M24,217.102 L50,217.102 M37,236.102 L24,251.102 M37,236.102 L50,251.102 " fill="none" filter="url(#f1tusb0bg2xyxs)" style="stroke:#A80036;stroke-width:1.5;"/><text fill="#000000" font-family="sans-serif" font-size="14" lengthAdjust="spacing" textLength="62" x="6" y="271.5679">Giáo viên</text><!--MD5=[8fc3522a43f8c7199df5e09e5bb0188e]
entity user--><ellipse cx="144.5" cy="142.102" fill="#FEFECE" filter="url(#f1tusb0bg2xyxs)" rx="8" ry="8" style="stroke:#A80036;stroke-width:1.5;"/><path d="M144.5,150.102 L144.5,177.102 M131.5,158.102 L157.5,158.102 M144.5,177.102 L131.5,192.102 M144.5,177.102 L157.5,192.102 " fill="none" filter="url(#f1tusb0bg2xyxs)" style="stroke:#A80036;stroke-width:1.5;"/><text fill="#000000" font-family="sans-serif" font-size="14" lengthAdjust="spacing" textLength="31" x="129" y="212.5679">User</text><!--MD5=[865ae7f372f202add3afab6a1bf36408]
link uc4 to uc5--><path d="M382.57,269.952 C415.17,267.972 453.26,265.662 486.53,263.642 " fill="none" id="uc4-to-uc5" style="stroke:#A80036;stroke-width:1.0;stroke-dasharray:7.0,7.0;"/><polygon fill="#A80036" points="491.83,263.322,482.6066,259.8682,486.839,263.6214,483.0857,267.8538,491.83,263.322" style="stroke:#A80036;stroke-width:1.0;"/><text fill="#000000" font-family="sans-serif" font-size="13" lengthAdjust="spacing" textLength="42" x="418" y="262.499">extend</text><!--MD5=[0ed1f53a7cc8c35f266253ca318149a7]
link student to user--><path d="M68.23,131.792 C81.72,139.472 97.63,148.522 111.34,156.312 " fill="none" id="student-to-user" style="stroke:#A80036;stroke-width:1.0;"/><polygon fill="none" points="114.85,150.252,128.78,166.232,107.93,162.422,114.85,150.252" style="stroke:#A80036;stroke-width:1.0;"/><!--MD5=[68ec669b9e10375f8a8bff17c9c3117c]
link teacher to user--><path d="M68.23,216.692 C81.57,209.232 97.27,200.452 110.87,192.852 " fill="none" id="teacher-to-user" style="stroke:#A80036;stroke-width:1.0;"/><polygon fill="none" points="107.9,186.492,128.78,182.832,114.74,198.712,107.9,186.492" style="stroke:#A80036;stroke-width:1.0;"/><!--MD5=[a552fc0b90431714ccaf32fb04ce4373]
link user to uc1--><path d="M160.19,143.482 C169.3,127.162 182.45,108.042 199,95.602 C212.61,85.382 229.41,78.162 245.55,73.082 " fill="none" id="user-to-uc1" style="stroke:#A80036;stroke-width:1.0;"/><polygon fill="#A80036" points="250.54,71.582,240.7651,70.3769,245.7568,73.0384,243.0953,78.03,250.54,71.582" style="stroke:#A80036;stroke-width:1.0;"/><!--MD5=[1306d94884301688934f36b86e9fe539]
link user to uc2--><path d="M160.28,169.762 C168.92,166.982 180.04,163.482 190,160.602 C212.94,153.982 238.64,147.162 259.83,141.702 " fill="none" id="user-to-uc2" style="stroke:#A80036;stroke-width:1.0;"/><polygon fill="#A80036" points="264.83,140.422,255.1182,138.7848,259.9869,141.6649,257.1068,146.5337,264.83,140.422" style="stroke:#A80036;stroke-width:1.0;"/><!--MD5=[4029eb621b645d55a8edd03ddc47f2d8]
link user to uc3--><path d="M160.13,177.092 C176.94,179.962 205.75,184.862 233.2,189.542 " fill="none" id="user-to-uc3" style="stroke:#A80036;stroke-width:1.0;"/><polygon fill="#A80036" points="238.3,190.412,230.1031,184.9521,233.3715,189.5691,228.7545,192.8376,238.3,190.412" style="stroke:#A80036;stroke-width:1.0;"/><!--MD5=[2e2d49936ae8c597b9c4ccb6f1a60aa8]
link user to uc4--><path d="M160.01,197.072 C169.66,210.452 183.4,226.862 199,237.602 C212.56,246.932 228.73,254.152 244.26,259.632 " fill="none" id="user-to-uc4" style="stroke:#A80036;stroke-width:1.0;"/><polygon fill="#A80036" points="249.05,261.282,241.825,254.5888,244.3181,259.6666,239.2403,262.1597,249.05,261.282" style="stroke:#A80036;stroke-width:1.0;"/><!--MD5=[99e1b2e2cdd598a9b636ecf79dc1765c]
@startuml
skinparam WrapWidth 120
left to right direction
package "Authorization" {
    usecase "Đăng nhập" as uc1
    usecase "Đăng kí" as uc2
    usecase "Lấy lại mật khẩu" as uc3
    usecase "Quên mật khẩu" as uc4
    usecase "Nhận lại mật khẩu qua mail" as uc5
    uc4 ..> uc5 : extend
}
"Sinh viên" as student
"Giáo viên" as teacher
"User" as user
student - -|> user
teacher - -|> user
user - -> uc1
user - -> uc2
user - -> uc3
user - -> uc4
@enduml

PlantUML version 1.2022.0(Tue Jan 11 23:16:42 ICT 2022)
(GPL source distribution)
Java Runtime: OpenJDK Runtime Environment
JVM: OpenJDK 64-Bit Server VM
Default Encoding: UTF-8
Language: en
Country: US
--></g></svg>