<?xml version="1.0" encoding="UTF-8" standalone="no"?><svg xmlns="http://www.w3.org/2000/svg" xmlns:xlink="http://www.w3.org/1999/xlink" contentScriptType="application/ecmascript" contentStyleType="text/css" height="347px" preserveAspectRatio="none" style="width:653px;height:347px;background:#FFFFFF;" version="1.1" viewBox="0 0 653 347" width="653px" zoomAndPan="magnify"><defs><filter height="300%" id="f1a7ionxiw65rp" width="300%" x="-1" y="-1"><feGaussianBlur result="blurOut" stdDeviation="2.0"/><feColorMatrix in="blurOut" result="blurOut2" type="matrix" values="0 0 0 0 0 0 0 0 0 0 0 0 0 0 0 0 0 0 .4 0"/><feOffset dx="4.0" dy="4.0" in="blurOut2" result="blurOut3"/><feBlend in="SourceGraphic" in2="blurOut3" mode="normal"/></filter></defs><g><!--MD5=[315283a39d2e15924b1a4c54a99a61c7]
cluster Quản lý lớp--><polygon fill="#FFFFFF" filter="url(#f1a7ionxiw65rp)" points="115,6.602,201,6.602,208,31.6699,636,31.6699,636,340.602,115,340.602,115,6.602" style="stroke:#000000;stroke-width:1.5;"/><line style="stroke:#000000;stroke-width:1.5;" x1="115" x2="208" y1="31.6699" y2="31.6699"/><text fill="#000000" font-family="sans-serif" font-size="14" font-weight="bold" lengthAdjust="spacing" textLength="80" x="119" y="23.5679">Quản lý lớp</text><ellipse cx="227.0871" cy="75.4093" fill="#FEFECE" filter="url(#f1a7ionxiw65rp)" rx="96.0871" ry="30.3073" style="stroke:#A80036;stroke-width:1.5;"/><text fill="#000000" font-family="sans-serif" font-size="14" lengthAdjust="spacing" textLength="114" x="165.0871" y="70.6083">Lựa chọn câu hỏi</text><text fill="#000000" font-family="sans-serif" font-size="14" lengthAdjust="spacing" textLength="50" x="199.0871" y="89.6762">cho lớp</text><ellipse cx="227.0599" cy="184.5511" fill="#FEFECE" filter="url(#f1a7ionxiw65rp)" rx="88.5599" ry="43.4492" style="stroke:#A80036;stroke-width:1.5;"/><text fill="#000000" font-family="sans-serif" font-size="14" lengthAdjust="spacing" textLength="90" x="180.0599" y="168.9152">Giới hạn sinh</text><text fill="#000000" font-family="sans-serif" font-size="14" lengthAdjust="spacing" textLength="105" x="172.5599" y="187.9831">viên được tham</text><text fill="#000000" font-family="sans-serif" font-size="14" lengthAdjust="spacing" textLength="18" x="218.0599" y="207.051">dự</text><ellipse cx="523.436" cy="262.5936" fill="#FEFECE" filter="url(#f1a7ionxiw65rp)" rx="96.436" ry="43.4916" style="stroke:#A80036;stroke-width:1.5;"/><text fill="#000000" font-family="sans-serif" font-size="14" lengthAdjust="spacing" textLength="120" x="460.436" y="248.2586">Import thông qua</text><text fill="#000000" font-family="sans-serif" font-size="14" lengthAdjust="spacing" textLength="101" x="467.936" y="267.3265">email bằng file</text><text fill="#000000" font-family="sans-serif" font-size="14" lengthAdjust="spacing" textLength="34" x="503.436" y="286.3945">Excel</text><ellipse cx="523.6102" cy="140.5511" fill="#FEFECE" filter="url(#f1a7ionxiw65rp)" rx="83.6102" ry="43.4492" style="stroke:#A80036;stroke-width:1.5;"/><text fill="#000000" font-family="sans-serif" font-size="14" lengthAdjust="spacing" textLength="94" x="474.6102" y="124.9152">Thêm lần lượt</text><text fill="#000000" font-family="sans-serif" font-size="14" lengthAdjust="spacing" textLength="98" x="472.6102" y="143.9831">email của sinh</text><text fill="#000000" font-family="sans-serif" font-size="14" lengthAdjust="spacing" textLength="28" x="509.6102" y="163.051">viên</text><ellipse cx="226.8557" cy="293.4048" fill="#FEFECE" filter="url(#f1a7ionxiw65rp)" rx="95.3557" ry="30.3028" style="stroke:#A80036;stroke-width:1.5;"/><text fill="#000000" font-family="sans-serif" font-size="14" lengthAdjust="spacing" textLength="117" x="165.3557" y="288.6038">Tạo các kì thi gắn</text><text fill="#000000" font-family="sans-serif" font-size="14" lengthAdjust="spacing" textLength="46" x="200.8557" y="307.6717">với lớp</text><!--MD5=[3a97ee507a2567319ae9a2f540b0a5e1]
entity teacher--><ellipse cx="37" cy="152.102" fill="#FEFECE" filter="url(#f1a7ionxiw65rp)" rx="8" ry="8" style="stroke:#A80036;stroke-width:1.5;"/><path d="M37,160.102 L37,187.102 M24,168.102 L50,168.102 M37,187.102 L24,202.102 M37,187.102 L50,202.102 " fill="none" filter="url(#f1a7ionxiw65rp)" style="stroke:#A80036;stroke-width:1.5;"/><text fill="#000000" font-family="sans-serif" font-size="14" lengthAdjust="spacing" textLength="62" x="6" y="222.5679">Giáo viên</text><!--MD5=[6b1c9e35c3f80f3a2e531c121282f626]
link teacher to uc1--><path d="M68.15,153.932 C79.63,143.382 93.26,132.092 107,123.602 C121.85,114.422 138.77,106.362 155.09,99.592 " fill="none" id="teacher-to-uc1" style="stroke:#A80036;stroke-width:1.0;"/><polygon fill="#A80036" points="160.13,97.542,150.2852,97.2593,155.5045,99.4407,153.3232,104.66,160.13,97.542" style="stroke:#A80036;stroke-width:1.0;"/><!--MD5=[7453c102e18c161c545fe3d919f9b7ef]
link teacher to uc2--><path d="M68.21,184.602 C86.04,184.602 109.66,184.602 133.19,184.602 " fill="none" id="teacher-to-uc2" style="stroke:#A80036;stroke-width:1.0;"/><polygon fill="#A80036" points="138.21,184.602,129.21,180.602,133.21,184.602,129.21,188.602,138.21,184.602" style="stroke:#A80036;stroke-width:1.0;"/><!--MD5=[317d7c13aa187f6653fc1dde9fa94fce]
link uc2 to uc3--><path d="M305.38,205.092 C345.17,215.632 393.83,228.522 434.99,239.422 " fill="none" id="uc2-to-uc3" style="stroke:#A80036;stroke-width:1.0;stroke-dasharray:7.0,7.0;"/><polygon fill="#A80036" points="439.97,240.742,432.2852,234.5821,435.1348,239.4688,430.2481,242.3184,439.97,240.742" style="stroke:#A80036;stroke-width:1.0;"/><text fill="#000000" font-family="sans-serif" font-size="13" lengthAdjust="spacing" textLength="42" x="354" y="215.499">extend</text><!--MD5=[5eee960a5d7e293557d022f5918bd165]
link uc2 to uc4--><path d="M312,172.052 C351.37,166.172 398.2,159.172 437.68,153.272 " fill="none" id="uc2-to-uc4" style="stroke:#A80036;stroke-width:1.0;stroke-dasharray:7.0,7.0;"/><polygon fill="#A80036" points="442.95,152.492,433.4566,149.87,438.0052,153.233,434.6422,157.7816,442.95,152.492" style="stroke:#A80036;stroke-width:1.0;"/><text fill="#000000" font-family="sans-serif" font-size="13" lengthAdjust="spacing" textLength="42" x="354" y="156.499">extend</text><!--MD5=[fce23a9db58a8de5eec12f098b62e0bc]
link teacher to uc5--><path d="M68.15,215.272 C79.63,225.822 93.26,237.112 107,245.602 C121.85,254.782 138.77,262.842 155.09,269.612 " fill="none" id="teacher-to-uc5" style="stroke:#A80036;stroke-width:1.0;"/><polygon fill="#A80036" points="160.13,271.662,153.3232,264.5439,155.5045,269.7633,150.2852,271.9446,160.13,271.662" style="stroke:#A80036;stroke-width:1.0;"/><!--MD5=[f3d792607933627cf158500d6a268f00]
@startuml
left to right direction
skinparam WrapWidth 120

package "Quản lý lớp" {
    usecase "Lựa chọn câu hỏi cho lớp" as uc1
    usecase "Giới hạn sinh viên được tham dự" as uc2
    usecase "Import thông qua email bằng file Excel" as uc3
    usecase "Thêm lần lượt email của sinh viên" as uc4
    usecase "Tạo các kì thi gắn với lớp" as uc5
}

"Giáo viên" as teacher
teacher - -> uc1
teacher - -> uc2
uc2 ..> uc3 : extend
uc2 ..> uc4 : extend
teacher - -> uc5

@enduml

PlantUML version 1.2022.0(Tue Jan 11 23:16:42 ICT 2022)
(GPL source distribution)
Java Runtime: OpenJDK Runtime Environment
JVM: OpenJDK 64-Bit Server VM
Default Encoding: UTF-8
Language: en
Country: US
--></g></svg>