<?xml version="1.0" encoding="UTF-8" standalone="no"?><svg xmlns="http://www.w3.org/2000/svg" xmlns:xlink="http://www.w3.org/1999/xlink" contentScriptType="application/ecmascript" contentStyleType="text/css" height="713px" preserveAspectRatio="none" style="width:633px;height:713px;background:#FFFFFF;" version="1.1" viewBox="0 0 633 713" width="633px" zoomAndPan="magnify"><defs><filter height="300%" id="ft9pyq5c69np2" width="300%" x="-1" y="-1"><feGaussianBlur result="blurOut" stdDeviation="2.0"/><feColorMatrix in="blurOut" result="blurOut2" type="matrix" values="0 0 0 0 0 0 0 0 0 0 0 0 0 0 0 0 0 0 .4 0"/><feOffset dx="4.0" dy="4.0" in="blurOut2" result="blurOut3"/><feBlend in="SourceGraphic" in2="blurOut3" mode="normal"/></filter></defs><g><rect fill="#FEFECE" filter="url(#ft9pyq5c69np2)" height="36.3441" rx="12.5" ry="12.5" style="stroke:#A80036;stroke-width:1.5;" width="150" x="254.5" y="11"/><text fill="#000000" font-family="sans-serif" font-size="12" lengthAdjust="spacing" textLength="130" x="264.5" y="33.8281">Thực hiện upload đề thi</text><rect fill="#FEFECE" filter="url(#ft9pyq5c69np2)" height="52.6882" rx="12.5" ry="12.5" style="stroke:#A80036;stroke-width:1.5;" width="157" x="251" y="67.3441"/><text fill="#000000" font-family="sans-serif" font-size="12" lengthAdjust="spacing" textLength="134" x="261" y="90.1722">Vào UI của trang upload</text><text fill="#000000" font-family="sans-serif" font-size="12" lengthAdjust="spacing" textLength="31" x="314" y="106.5163">đề thi</text><polygon fill="#FEFECE" filter="url(#ft9pyq5c69np2)" points="34.5,140.0323,157.5,140.0323,169.5,152.0323,157.5,164.0323,34.5,164.0323,22.5,152.0323,34.5,140.0323" style="stroke:#A80036;stroke-width:1.5;"/><text fill="#000000" font-family="sans-serif" font-size="11" font-weight="bold" lengthAdjust="spacing" textLength="18" x="100" y="175.7913">yes</text><text fill="#000000" font-family="sans-serif" font-size="11" lengthAdjust="spacing" textLength="123" x="34.5" y="156.3003">Thực hiện import đề thi</text><rect fill="#FEFECE" filter="url(#ft9pyq5c69np2)" height="52.6882" rx="12.5" ry="12.5" style="stroke:#A80036;stroke-width:1.5;" width="169" x="11.5" y="197.2913"/><text fill="#000000" font-family="sans-serif" font-size="12" lengthAdjust="spacing" textLength="146" x="21.5" y="220.1193">Chọn file upload (file excel</text><text fill="#000000" font-family="sans-serif" font-size="12" lengthAdjust="spacing" textLength="52" x="70" y="236.4635">hoặc csv)</text><rect fill="#FEFECE" filter="url(#ft9pyq5c69np2)" height="118.0647" rx="12.5" ry="12.5" style="stroke:#A80036;stroke-width:1.5;" width="168" x="12" y="284.9795"/><text fill="#000000" font-family="sans-serif" font-size="12" lengthAdjust="spacing" textLength="141" x="24" y="307.8076">Hiển thị các giao diện các</text><text fill="#000000" font-family="sans-serif" font-size="12" lengthAdjust="spacing" textLength="125" x="32" y="324.1517">câu hỏi được lấy từ file</text><text fill="#000000" font-family="sans-serif" font-size="12" lengthAdjust="spacing" textLength="133" x="28" y="340.4958">upload (vẫn hiển thị nếu</text><text fill="#000000" font-family="sans-serif" font-size="12" lengthAdjust="spacing" textLength="142" x="23.5" y="356.8399">như giao diện của câu hỏi</text><text fill="#000000" font-family="sans-serif" font-size="12" lengthAdjust="spacing" textLength="145" x="22" y="373.184">đó trong file upload không</text><text fill="#000000" font-family="sans-serif" font-size="12" lengthAdjust="spacing" textLength="132" x="30" y="389.5281">đúng như ý người dùng)</text><rect fill="#FEFECE" filter="url(#ft9pyq5c69np2)" height="69.0323" rx="12.5" ry="12.5" style="stroke:#A80036;stroke-width:1.5;" width="170" x="11" y="438.0442"/><text fill="#000000" font-family="sans-serif" font-size="12" lengthAdjust="spacing" textLength="120" x="34.5" y="460.8723">Người dùng thực hiện</text><text fill="#000000" font-family="sans-serif" font-size="12" lengthAdjust="spacing" textLength="150" x="21" y="477.2164">chỉnh sửa các câu hỏi chưa</text><text fill="#000000" font-family="sans-serif" font-size="12" lengthAdjust="spacing" textLength="30" x="81" y="493.5605">vừa ý</text><polygon fill="#FEFECE" filter="url(#ft9pyq5c69np2)" points="213,140.0323,414,140.0323,426,152.0323,414,164.0323,213,164.0323,201,152.0323,213,140.0323" style="stroke:#A80036;stroke-width:1.5;"/><text fill="#000000" font-family="sans-serif" font-size="11" font-weight="bold" lengthAdjust="spacing" textLength="18" x="317.5" y="175.7913">yes</text><text fill="#000000" font-family="sans-serif" font-size="11" lengthAdjust="spacing" textLength="201" x="213" y="156.3003">Thực hiện lựa chọn trong cơ sở dữ liệu</text><rect fill="#FEFECE" filter="url(#ft9pyq5c69np2)" height="69.0323" rx="12.5" ry="12.5" style="stroke:#A80036;stroke-width:1.5;" width="170" x="228.5" y="197.2913"/><text fill="#000000" font-family="sans-serif" font-size="12" lengthAdjust="spacing" textLength="145" x="239.5" y="220.1193">Loading cơ sở dữ liệu mẫu</text><text fill="#000000" font-family="sans-serif" font-size="12" lengthAdjust="spacing" textLength="150" x="238.5" y="236.4635">( cơ sỡ dữ liệu mà người đó</text><text fill="#000000" font-family="sans-serif" font-size="12" lengthAdjust="spacing" textLength="102" x="262.5" y="252.8076">đã từng thêm vào)</text><rect fill="#FEFECE" filter="url(#ft9pyq5c69np2)" height="52.6882" rx="12.5" ry="12.5" style="stroke:#A80036;stroke-width:1.5;" width="154" x="236.5" y="301.3236"/><text fill="#000000" font-family="sans-serif" font-size="12" lengthAdjust="spacing" textLength="129" x="247.5" y="324.1517">Lựa chọn câu hỏi muốn</text><text fill="#000000" font-family="sans-serif" font-size="12" lengthAdjust="spacing" textLength="134" x="246.5" y="340.4958">thêm vào tập đề hiện tại</text><rect fill="#FEFECE" filter="url(#ft9pyq5c69np2)" height="69.0323" rx="12.5" ry="12.5" style="stroke:#A80036;stroke-width:1.5;" width="163" x="232" y="389.0118"/><text fill="#000000" font-family="sans-serif" font-size="12" lengthAdjust="spacing" textLength="140" x="242" y="411.8399">Hiển thị giao diện câu hỏi</text><text fill="#000000" font-family="sans-serif" font-size="12" lengthAdjust="spacing" textLength="128" x="248" y="428.184">đã được thêm và người</text><text fill="#000000" font-family="sans-serif" font-size="12" lengthAdjust="spacing" textLength="140" x="243.5" y="444.5281">dùng thực hiện chỉnh sửa</text><polygon fill="#FEFECE" filter="url(#ft9pyq5c69np2)" points="458,140.0323,577,140.0323,589,152.0323,577,164.0323,458,164.0323,446,152.0323,458,140.0323" style="stroke:#A80036;stroke-width:1.5;"/><text fill="#000000" font-family="sans-serif" font-size="11" font-weight="bold" lengthAdjust="spacing" textLength="18" x="521.5" y="175.7913">yes</text><text fill="#000000" font-family="sans-serif" font-size="11" lengthAdjust="spacing" textLength="119" x="458" y="156.3003">Thêm câu hỏi bằng tay</text><rect fill="#FEFECE" filter="url(#ft9pyq5c69np2)" height="52.6882" rx="12.5" ry="12.5" style="stroke:#A80036;stroke-width:1.5;" width="152" x="441.5" y="197.2913"/><text fill="#000000" font-family="sans-serif" font-size="12" lengthAdjust="spacing" textLength="129" x="451.5" y="220.1193">Hiển thị giao diện thêm</text><text fill="#000000" font-family="sans-serif" font-size="12" lengthAdjust="spacing" textLength="91" x="472" y="236.4635">câu hỏi bằng tay</text><rect fill="#FEFECE" filter="url(#ft9pyq5c69np2)" height="52.6882" rx="12.5" ry="12.5" style="stroke:#A80036;stroke-width:1.5;" width="143" x="446" y="284.9795"/><text fill="#000000" font-family="sans-serif" font-size="12" lengthAdjust="spacing" textLength="120" x="456" y="307.8076">Người dùng thực hiện</text><text fill="#000000" font-family="sans-serif" font-size="12" lengthAdjust="spacing" textLength="102" x="466.5" y="324.1517">thêm các lựa chọn</text><rect fill="#FEFECE" filter="url(#ft9pyq5c69np2)" height="36.3441" rx="12.5" ry="12.5" style="stroke:#A80036;stroke-width:1.5;" width="140" x="259.5" y="547.0765"/><text fill="#000000" font-family="sans-serif" font-size="12" lengthAdjust="spacing" textLength="120" x="269.5" y="569.9046">Người dùng lưu đề thi</text><rect fill="#FEFECE" filter="url(#ft9pyq5c69np2)" height="52.6882" rx="12.5" ry="12.5" style="stroke:#A80036;stroke-width:1.5;" width="166" x="246.5" y="603.4206"/><text fill="#000000" font-family="sans-serif" font-size="12" lengthAdjust="spacing" textLength="143" x="256.5" y="626.2487">Hệ thống thực hiện lưu lại</text><text fill="#000000" font-family="sans-serif" font-size="12" lengthAdjust="spacing" textLength="145" x="257" y="642.5928">các câu hỏi có trong đề thi</text><ellipse cx="329.5" cy="686.1089" fill="#FFFFFF" filter="url(#ft9pyq5c69np2)" rx="10" ry="10" style="stroke:#000000;stroke-width:1.5;"/><line style="stroke:#000000;stroke-width:2.5;" x1="323.3128" x2="335.6872" y1="679.9217" y2="692.296"/><line style="stroke:#000000;stroke-width:2.5;" x1="335.6872" x2="323.3128" y1="679.9217" y2="692.296"/><line style="stroke:#A80036;stroke-width:1.5;" x1="329.5" x2="329.5" y1="47.3441" y2="67.3441"/><polygon fill="#A80036" points="325.5,57.3441,329.5,67.3441,333.5,57.3441,329.5,61.3441" style="stroke:#A80036;stroke-width:1.0;"/><line style="stroke:#A80036;stroke-width:1.5;" x1="96" x2="96" y1="249.9795" y2="284.9795"/><polygon fill="#A80036" points="92,274.9795,96,284.9795,100,274.9795,96,278.9795" style="stroke:#A80036;stroke-width:1.0;"/><line style="stroke:#A80036;stroke-width:1.5;" x1="96" x2="96" y1="403.0442" y2="438.0442"/><polygon fill="#A80036" points="92,428.0442,96,438.0442,100,428.0442,96,432.0442" style="stroke:#A80036;stroke-width:1.0;"/><line style="stroke:#A80036;stroke-width:1.5;" x1="313.5" x2="313.5" y1="266.3236" y2="301.3236"/><polygon fill="#A80036" points="309.5,291.3236,313.5,301.3236,317.5,291.3236,313.5,295.3236" style="stroke:#A80036;stroke-width:1.0;"/><line style="stroke:#A80036;stroke-width:1.5;" x1="313.5" x2="313.5" y1="354.0118" y2="389.0118"/><polygon fill="#A80036" points="309.5,379.0118,313.5,389.0118,317.5,379.0118,313.5,383.0118" style="stroke:#A80036;stroke-width:1.0;"/><line style="stroke:#A80036;stroke-width:1.5;" x1="517.5" x2="517.5" y1="249.9795" y2="284.9795"/><polygon fill="#A80036" points="513.5,274.9795,517.5,284.9795,521.5,274.9795,517.5,278.9795" style="stroke:#A80036;stroke-width:1.0;"/><line style="stroke:#A80036;stroke-width:1.5;" x1="96" x2="96" y1="164.0323" y2="197.2913"/><polygon fill="#A80036" points="92,187.2913,96,197.2913,100,187.2913,96,191.2913" style="stroke:#A80036;stroke-width:1.0;"/><line style="stroke:#A80036;stroke-width:1.5;" x1="96" x2="96" y1="507.0765" y2="527.0765"/><polygon fill="#A80036" points="92,517.0765,96,527.0765,100,517.0765,96,521.0765" style="stroke:#A80036;stroke-width:1.0;"/><line style="stroke:#A80036;stroke-width:1.5;" x1="313.5" x2="313.5" y1="164.0323" y2="197.2913"/><polygon fill="#A80036" points="309.5,187.2913,313.5,197.2913,317.5,187.2913,313.5,191.2913" style="stroke:#A80036;stroke-width:1.0;"/><line style="stroke:#A80036;stroke-width:1.5;" x1="313.5" x2="313.5" y1="458.0442" y2="527.0765"/><polygon fill="#A80036" points="309.5,517.0765,313.5,527.0765,317.5,517.0765,313.5,521.0765" style="stroke:#A80036;stroke-width:1.0;"/><line style="stroke:#A80036;stroke-width:1.5;" x1="517.5" x2="517.5" y1="164.0323" y2="197.2913"/><polygon fill="#A80036" points="513.5,187.2913,517.5,197.2913,521.5,187.2913,517.5,191.2913" style="stroke:#A80036;stroke-width:1.0;"/><line style="stroke:#A80036;stroke-width:1.5;" x1="517.5" x2="517.5" y1="337.6677" y2="527.0765"/><polygon fill="#A80036" points="513.5,517.0765,517.5,527.0765,521.5,517.0765,517.5,521.0765" style="stroke:#A80036;stroke-width:1.0;"/><line style="stroke:#A80036;stroke-width:1.5;" x1="169.5" x2="201" y1="152.0323" y2="152.0323"/><polygon fill="#A80036" points="191,148.0323,201,152.0323,191,156.0323,195,152.0323" style="stroke:#A80036;stroke-width:1.0;"/><line style="stroke:#A80036;stroke-width:1.5;" x1="426" x2="446" y1="152.0323" y2="152.0323"/><polygon fill="#A80036" points="436,148.0323,446,152.0323,436,156.0323,440,152.0323" style="stroke:#A80036;stroke-width:1.0;"/><line style="stroke:#A80036;stroke-width:1.5;" x1="329.5" x2="329.5" y1="120.0323" y2="125.0323"/><line style="stroke:#A80036;stroke-width:1.5;" x1="329.5" x2="96" y1="125.0323" y2="125.0323"/><line style="stroke:#A80036;stroke-width:1.5;" x1="96" x2="96" y1="125.0323" y2="140.0323"/><polygon fill="#A80036" points="92,130.0323,96,140.0323,100,130.0323,96,134.0323" style="stroke:#A80036;stroke-width:1.0;"/><line style="stroke:#A80036;stroke-width:1.5;" x1="589" x2="607.5" y1="152.0323" y2="152.0323"/><line style="stroke:#A80036;stroke-width:1.5;" x1="607.5" x2="607.5" y1="152.0323" y2="527.0765"/><polygon fill="#A80036" points="603.5,517.0765,607.5,527.0765,611.5,517.0765,607.5,521.0765" style="stroke:#A80036;stroke-width:1.0;"/><line style="stroke:#A80036;stroke-width:1.5;" x1="96" x2="607.5" y1="527.0765" y2="527.0765"/><line style="stroke:#A80036;stroke-width:1.5;" x1="329.5" x2="329.5" y1="527.0765" y2="547.0765"/><polygon fill="#A80036" points="325.5,537.0765,329.5,547.0765,333.5,537.0765,329.5,541.0765" style="stroke:#A80036;stroke-width:1.0;"/><line style="stroke:#A80036;stroke-width:1.5;" x1="329.5" x2="329.5" y1="583.4206" y2="603.4206"/><polygon fill="#A80036" points="325.5,593.4206,329.5,603.4206,333.5,593.4206,329.5,597.4206" style="stroke:#A80036;stroke-width:1.0;"/><line style="stroke:#A80036;stroke-width:1.5;" x1="329.5" x2="329.5" y1="656.1089" y2="676.1089"/><polygon fill="#A80036" points="325.5,666.1089,329.5,676.1089,333.5,666.1089,329.5,670.1089" style="stroke:#A80036;stroke-width:1.0;"/><!--MD5=[5d5ddbc6119ca09ae495c4207a18e54f]
@startuml
skinparam defaultTextAlignment center
skinparam wrapWidth 150 

:Thực hiện upload đề thi;
:Vào UI của trang upload đề thi;
if (Thực hiện import đề thi) then (**yes**)
    :Chọn file upload (file excel hoặc csv);
    :Hiển thị các giao diện các câu hỏi được lấy từ file upload (vẫn hiển thị nếu như giao diện của câu hỏi đó trong file upload không đúng như ý người dùng);
    :Người dùng thực hiện chỉnh sửa các câu hỏi chưa vừa ý;
elseif (Thực hiện lựa chọn trong cơ sở dữ liệu) then (**yes**) 
    :Loading cơ sở dữ liệu mẫu ( cơ sỡ dữ liệu mà người đó đã từng thêm vào);
    :Lựa chọn câu hỏi muốn thêm vào tập đề hiện tại;
    :Hiển thị giao diện câu hỏi đã được thêm và người dùng thực hiện chỉnh sửa;
elseif (Thêm câu hỏi bằng tay) then (**yes**) 
    :Hiển thị giao diện thêm câu hỏi bằng tay;
    :Người dùng thực hiện thêm các lựa chọn;
endif
:Người dùng lưu đề thi;
:Hệ thống thực hiện lưu lại các câu hỏi có trong đề thi;
end

@enduml

PlantUML version 1.2022.0(Tue Jan 11 23:16:42 ICT 2022)
(GPL source distribution)
Java Runtime: OpenJDK Runtime Environment
JVM: OpenJDK 64-Bit Server VM
Default Encoding: UTF-8
Language: en
Country: US
--></g></svg>