<?xml version="1.0" encoding="UTF-8" standalone="no"?><svg xmlns="http://www.w3.org/2000/svg" xmlns:xlink="http://www.w3.org/1999/xlink" contentScriptType="application/ecmascript" contentStyleType="text/css" height="341px" preserveAspectRatio="none" style="width:624px;height:341px;background:#FFFFFF;" version="1.1" viewBox="0 0 624 341" width="624px" zoomAndPan="magnify"><defs><filter height="300%" id="f1ccwjja9gye1q" width="300%" x="-1" y="-1"><feGaussianBlur result="blurOut" stdDeviation="2.0"/><feColorMatrix in="blurOut" result="blurOut2" type="matrix" values="0 0 0 0 0 0 0 0 0 0 0 0 0 0 0 0 0 0 .4 0"/><feOffset dx="4.0" dy="4.0" in="blurOut2" result="blurOut3"/><feBlend in="SourceGraphic" in2="blurOut3" mode="normal"/></filter></defs><g><!--MD5=[e67e5313aef17bcafc6aae2df6e3e97f]
cluster Hệ thống--><polygon fill="#FFFFFF" filter="url(#f1ccwjja9gye1q)" points="115,6.602,186,6.602,193,31.6699,607,31.6699,607,334.602,115,334.602,115,6.602" style="stroke:#000000;stroke-width:1.5;"/><line style="stroke:#000000;stroke-width:1.5;" x1="115" x2="193" y1="31.6699" y2="31.6699"/><text fill="#000000" font-family="sans-serif" font-size="14" font-weight="bold" lengthAdjust="spacing" textLength="65" x="119" y="23.5679">Hệ thống</text><ellipse cx="211.5497" cy="62.5119" fill="#FEFECE" filter="url(#f1ccwjja9gye1q)" rx="75.0497" ry="17.4099" style="stroke:#A80036;stroke-width:1.5;"/><text fill="#000000" font-family="sans-serif" font-size="14" lengthAdjust="spacing" textLength="89" x="164.0497" y="67.2449">Tham gia lớp</text><ellipse cx="493.5499" cy="75.4182" fill="#FEFECE" filter="url(#f1ccwjja9gye1q)" rx="97.5499" ry="30.3162" style="stroke:#A80036;stroke-width:1.5;"/><text fill="#000000" font-family="sans-serif" font-size="14" lengthAdjust="spacing" textLength="120" x="430.5499" y="70.6172">Làm các bài thi có</text><text fill="#000000" font-family="sans-serif" font-size="14" lengthAdjust="spacing" textLength="118" x="431.5499" y="89.6851">trong lớp hiện tại</text><ellipse cx="211.5574" cy="299.6135" fill="#FEFECE" filter="url(#f1ccwjja9gye1q)" rx="80.5574" ry="18.5115" style="stroke:#A80036;stroke-width:1.5;"/><text fill="#000000" font-family="sans-serif" font-size="14" lengthAdjust="spacing" textLength="105" x="156.0574" y="304.3464">Quản lý câu hỏi</text><ellipse cx="211.2587" cy="215.686" fill="#FEFECE" filter="url(#f1ccwjja9gye1q)" rx="69.7587" ry="30.084" style="stroke:#A80036;stroke-width:1.5;"/><text fill="#000000" font-family="sans-serif" font-size="14" lengthAdjust="spacing" textLength="78" x="167.2587" y="210.885">Quản lý lớp</text><text fill="#000000" font-family="sans-serif" font-size="14" lengthAdjust="spacing" textLength="74" x="171.2587" y="229.9529">(phòng thi)</text><ellipse cx="211.7128" cy="132.6445" fill="#FEFECE" filter="url(#f1ccwjja9gye1q)" rx="75.7128" ry="17.5426" style="stroke:#A80036;stroke-width:1.5;"/><text fill="#000000" font-family="sans-serif" font-size="14" lengthAdjust="spacing" textLength="91" x="163.2128" y="137.3775">Authorization</text><!--MD5=[0bc547216396b1ae8e8279bf1212b736]
entity student--><ellipse cx="37" cy="55.102" fill="#FEFECE" filter="url(#f1ccwjja9gye1q)" rx="8" ry="8" style="stroke:#A80036;stroke-width:1.5;"/><path d="M37,63.102 L37,90.102 M24,71.102 L50,71.102 M37,90.102 L24,105.102 M37,90.102 L50,105.102 " fill="none" filter="url(#f1ccwjja9gye1q)" style="stroke:#A80036;stroke-width:1.5;"/><text fill="#000000" font-family="sans-serif" font-size="14" lengthAdjust="spacing" textLength="62" x="6" y="125.5679">Sinh viên</text><!--MD5=[3a97ee507a2567319ae9a2f540b0a5e1]
entity teacher--><ellipse cx="37" cy="183.102" fill="#FEFECE" filter="url(#f1ccwjja9gye1q)" rx="8" ry="8" style="stroke:#A80036;stroke-width:1.5;"/><path d="M37,191.102 L37,218.102 M24,199.102 L50,199.102 M37,218.102 L24,233.102 M37,218.102 L50,233.102 " fill="none" filter="url(#f1ccwjja9gye1q)" style="stroke:#A80036;stroke-width:1.5;"/><text fill="#000000" font-family="sans-serif" font-size="14" lengthAdjust="spacing" textLength="62" x="6" y="253.5679">Giáo viên</text><!--MD5=[05cb7d196e732b0858fe4056fe015c45]
link teacher to uc3--><path d="M68.05,215.602 C86.97,215.602 112.29,215.602 136.33,215.602 " fill="none" id="teacher-to-uc3" style="stroke:#A80036;stroke-width:1.0;"/><polygon fill="#A80036" points="141.44,215.602,132.44,211.602,136.44,215.602,132.44,219.602,141.44,215.602" style="stroke:#A80036;stroke-width:1.0;"/><!--MD5=[e66392b4e0b45eee08e85cd6835e8155]
link teacher to uc4--><path d="M68.1,191.912 C79.79,183.462 93.58,174.372 107,167.602 C122.66,159.712 140.5,152.952 156.91,147.542 " fill="none" id="teacher-to-uc4" style="stroke:#A80036;stroke-width:1.0;"/><polygon fill="#A80036" points="161.96,145.902,152.165,144.8736,157.2039,147.4445,154.633,152.4834,161.96,145.902" style="stroke:#A80036;stroke-width:1.0;"/><!--MD5=[7453c102e18c161c545fe3d919f9b7ef]
link teacher to uc2--><path d="M68.13,239.232 C79.82,247.672 93.61,256.782 107,263.602 C122.21,271.352 139.47,278.092 155.48,283.572 " fill="none" id="teacher-to-uc2" style="stroke:#A80036;stroke-width:1.0;"/><polygon fill="#A80036" points="160.4,285.242,153.1508,278.575,155.6623,283.6437,150.5936,286.1553,160.4,285.242" style="stroke:#A80036;stroke-width:1.0;"/><!--MD5=[3d29ee42849f4302e2c5cb43f1071b19]
link student to uc4--><path d="M68.05,95.442 C92.14,101.722 126.59,110.712 155.57,118.272 " fill="none" id="student-to-uc4" style="stroke:#A80036;stroke-width:1.0;"/><polygon fill="#A80036" points="160.55,119.572,152.8438,113.439,155.7104,118.3157,150.8337,121.1823,160.55,119.572" style="stroke:#A80036;stroke-width:1.0;"/><!--MD5=[b3991bb8685aa6bece8415a29ebda067]
link student to uc6--><path d="M68.05,83.252 C88.5,80.282 116.42,76.232 142.12,72.512 " fill="none" id="student-to-uc6" style="stroke:#A80036;stroke-width:1.0;"/><polygon fill="#A80036" points="147.23,71.772,137.7515,69.0964,142.2811,72.4851,138.8925,77.0147,147.23,71.772" style="stroke:#A80036;stroke-width:1.0;"/><!--MD5=[59ac6bbad52916c2ebb5403f26442ecf]
link uc6 to uc1--><path d="M285.34,65.982 C317.77,67.492 356.5,69.292 391.66,70.922 " fill="none" id="uc6-to-uc1" style="stroke:#A80036;stroke-width:1.0;stroke-dasharray:7.0,7.0;"/><polygon fill="#A80036" points="396.82,71.162,388.0126,66.754,391.8252,70.933,387.6463,74.7456,396.82,71.162" style="stroke:#A80036;stroke-width:1.0;"/><text fill="#000000" font-family="sans-serif" font-size="13" lengthAdjust="spacing" textLength="42" x="323" y="64.499">extend</text><!--MD5=[5b4274a5f11161ab719a5c01469a85a2]
@startuml
skinparam WrapWidth 120
left to right direction
package "Hệ thống" {
    usecase "Tham gia lớp" as uc6
    usecase "Làm các bài thi có trong lớp hiện tại" as uc1
    usecase "Quản lý câu hỏi" as uc2
    usecase "Quản lý lớp (phòng thi)" as uc3
    usecase "Authorization" as uc4
}

"Sinh viên" as student
"Giáo viên" as teacher

teacher - -> uc3
teacher - -> uc4
teacher - -> uc2
student - -> uc4
student - -> uc6
uc6 ..> uc1: extend


@enduml

PlantUML version 1.2022.0(Tue Jan 11 23:16:42 ICT 2022)
(GPL source distribution)
Java Runtime: OpenJDK Runtime Environment
JVM: OpenJDK 64-Bit Server VM
Default Encoding: UTF-8
Language: en
Country: US
--></g></svg>